<svg width="32" height="32" viewBox="0 0 32 32" fill="none" xmlns="http://www.w3.org/2000/svg">
    <path d="M27.8581 4.31153C25.1369 1.49056 21.3188 0 16.8157 0C13.442 0 10.4568 0.883288 8.01728 2.57229C6.37636 3.37376 4.91825 4.48947 3.73018 5.8527C1.32466 8.5961 0 12.2832 0 16.2346C0 25.6644 6.0875 32 15.1479 32C18.6068 32 21.6384 31.1115 24.0868 29.4125C25.7502 28.6033 27.2221 27.4652 28.4087 26.0707C30.7245 23.3623 32 19.7023 32 15.7648C32.0004 11.081 30.5681 7.12057 27.8581 4.31153ZM16.9266 28.6441C9.06081 28.6441 4.1498 23.2112 4.1498 15.1885C4.1498 11.0695 5.83619 7.01104 9.21392 4.58292C11.0333 3.7466 13.025 3.32668 15.0365 3.35529C22.7912 3.35529 27.8504 8.42768 27.8504 16.8109C27.8504 20.8555 26.2831 24.9557 22.8799 27.4109C21.2238 28.1903 19.2479 28.6441 16.9266 28.6441Z" fill="black"/>
    <path d="M16.9266 8.1731C15.3745 8.1731 14.0995 8.65871 13.1334 9.53623C10.5973 10.4033 9.20187 12.9945 9.20187 16.5937C9.20187 20.6236 11.4541 23.7893 14.9992 23.7893C16.5887 23.7893 17.8371 23.311 18.7623 22.4473C21.3504 21.5948 22.5753 18.959 22.5753 15.2964C22.5767 10.4759 20.213 8.1731 16.9266 8.1731ZM16.7788 20.434C14.4242 20.434 13.3519 17.9014 13.3519 15.5481C13.3519 13.8649 13.7272 12.46 14.41 11.5921V11.5911C14.6532 11.5487 14.8999 11.5277 15.1469 11.5284C17.3229 11.5284 18.4265 13.1479 18.4265 16.3417C18.4265 18.4216 18.0185 19.6593 17.4705 20.3959C17.2412 20.4251 17.01 20.4379 16.7788 20.434V20.434Z" fill="black"/>
    <path d="M29.6293 15.7798C29.6293 22.1474 25.7517 28.6592 16.926 28.6592C9.06022 28.6592 4.14922 23.2263 4.14922 15.2036C4.14922 8.692 8.35908 2.32422 16.8152 2.32422C24.5701 2.32422 29.6293 7.3968 29.6293 15.7798ZM16.926 8.18809C13.1225 8.18809 10.9805 11.1022 10.9805 15.5631C10.9805 19.5932 13.2327 22.7587 16.7782 22.7587C20.7295 22.7587 22.5759 19.8088 22.5759 15.3114C22.5761 10.4909 20.2126 8.18809 16.9262 8.18809H16.926Z" fill="#1556FC"/>
    <path d="M16.8454 28.6592C15.0344 28.6794 13.2372 28.3517 11.5562 27.695C10.0304 27.0867 8.66041 26.159 7.54332 24.9776C6.40672 23.7585 5.53695 22.3265 4.98706 20.7691C4.37212 19.0191 4.06169 17.1812 4.06859 15.3315H10.9019C10.9007 15.4045 10.8999 15.4824 10.8999 15.5625C10.8937 16.5183 11.0309 17.4699 11.3073 18.387C11.552 19.2098 11.9455 19.9834 12.4694 20.6715C12.9535 21.3076 13.5776 21.83 14.296 22.2003C15.0382 22.5734 15.8623 22.765 16.6974 22.7585C17.5841 22.775 18.463 22.5938 19.2669 22.2288C19.9886 21.8835 20.6098 21.3673 21.0736 20.7275C21.5768 20.0185 21.9391 19.2238 22.1416 18.3846C22.387 17.3848 22.5058 16.3595 22.4953 15.3315H29.5437C29.5471 15.483 29.5486 15.6339 29.5486 15.7798C29.5489 16.5771 29.4874 17.3732 29.3647 18.1614C29.2426 18.9472 29.0553 19.7221 28.8048 20.4784C28.3165 21.9851 27.5364 23.3867 26.5066 24.6073C25.4347 25.8653 24.0828 26.869 22.5535 27.5422C20.7547 28.3081 18.8082 28.689 16.8454 28.6592V28.6592Z" fill="#0037FB"/>
    <path d="M16.8458 29.2366C12.8441 29.2366 9.46365 27.8854 7.06978 25.3293C4.71879 22.8186 3.47632 19.3174 3.47632 15.2037C3.47632 8.72258 7.62513 1.74695 16.7349 1.74695C20.7348 1.74695 24.105 3.04927 26.4817 5.513C28.876 7.99597 30.1413 11.5453 30.1413 15.7802C30.1413 19.3133 29.0123 22.5795 26.9622 24.9772C24.5794 27.7635 21.0811 29.2366 16.8458 29.2366ZM16.7349 2.90163C8.43968 2.90163 4.66169 9.27866 4.66169 15.2035C4.66169 23.0267 9.44409 28.0817 16.8458 28.0817C25.2114 28.0817 28.9564 21.9032 28.9564 15.78C28.956 7.83641 24.2731 2.90163 16.7349 2.90163V2.90163ZM16.698 23.3361C12.9354 23.3361 10.3076 20.1397 10.3076 15.5631C10.3076 10.6578 12.8127 7.61063 16.8458 7.61063C20.7547 7.61063 23.0888 10.4893 23.0888 15.3113C23.0884 20.4112 20.7591 23.3361 16.698 23.3361ZM16.8458 8.76551C13.4939 8.76551 11.493 11.3062 11.493 15.5631C11.493 19.4598 13.6334 22.1813 16.698 22.1813C19.0725 22.1813 21.903 20.9895 21.903 15.3113C21.903 11.1513 20.0597 8.76551 16.8458 8.76551Z" fill="url(#paint0_linear_3_125)"/>
    <defs>
        <linearGradient id="paint0_linear_3_125" x1="16.8088" y1="1.74695" x2="16.8088" y2="29.2366" gradientUnits="userSpaceOnUse">
            <stop stop-color="#C9CEFC"/>
            <stop offset="1" stop-color="#C9F9FC" stop-opacity="0"/>
        </linearGradient>
    </defs>
</svg>
