<svg width="32" height="32" viewBox="0 0 32 32" fill="none" xmlns="http://www.w3.org/2000/svg">
    <path d="M10.0118 3.78408C10.0445 3.78302 10.0771 3.78615 10.1086 3.79335C10.3184 3.90194 13.7566 9.21638 15.2242 12.181H15.4761C17.2794 9.28865 20.7177 3.82949 21.0112 3.79335C21.0177 3.79305 21.0243 3.79305 21.0308 3.79335C21.6232 3.79335 27.6787 5.20927 27.7202 5.63773C27.7623 6.10781 21.1789 16.1223 20.8853 16.4838C22.4788 18.7613 28.3073 27.6552 28.2656 27.9083C28.1462 28.183 22.845 29.7296 21.1269 29.7296C21.0461 29.7302 20.9655 29.7256 20.8855 29.716C20.6341 29.6435 17.1956 24.2205 15.4344 21.2561H15.1828C13.4635 24.2205 10.0669 29.6435 9.85739 29.6435C9.73696 29.6601 9.61511 29.6677 9.49318 29.6662C7.6515 29.6662 2.72303 28.43 2.64514 28.1614C2.56133 27.9083 8.26408 18.9061 9.98333 16.4838C9.73146 16.1584 3.27417 6.14394 3.31608 5.67387C3.31608 5.25902 9.07411 3.78466 10.0123 3.78466L10.0118 3.78408ZM10.0123 1.51466C8.9846 1.51466 6.76006 2.07402 5.52526 2.40752C4.89184 2.57777 3.9789 2.83825 3.22897 3.10422C2.483 3.36905 0.753661 3.98158 0.685426 5.5755C0.644178 6.26614 0.912071 6.79392 1.96411 8.55487C2.51855 9.48292 3.28054 10.715 4.22617 12.2167C5.0305 13.4931 6.16197 15.2657 6.93975 16.4626C5.91031 17.9967 4.48682 20.2092 3.32508 22.0517C2.45646 23.429 1.71311 24.6312 1.17491 25.5288C0.153149 27.2337 -0.197239 27.8177 0.104442 28.7588C0.494542 30.0018 1.81426 30.406 2.60697 30.6489C3.17895 30.8241 3.92975 31.022 4.72093 31.206C5.89254 31.4788 8.07034 31.9362 9.49252 31.9362C9.72072 31.9374 9.94873 31.9248 10.1749 31.8984C11.4285 31.7737 12.0617 30.9336 12.2811 30.6435C12.4196 30.46 12.5925 30.2144 12.8097 29.8928C13.1814 29.3431 13.6845 28.5666 14.2648 27.6474C14.6117 27.0989 14.9713 26.5217 15.3278 25.944C15.6959 26.5304 16.0656 27.1151 16.4195 27.6681C17.0119 28.5938 17.5256 29.3762 17.9043 29.9314C18.6031 30.956 19.0245 31.5743 20.05 31.8694L20.2655 31.9315L20.4897 31.9608C20.7004 31.9877 20.913 32.0007 21.126 32C22.4395 32 24.5469 31.504 26.0834 31.088C26.9049 30.8655 27.6938 30.6289 28.3055 30.4212C29.1832 30.1231 30.2751 29.7523 30.7302 28.7054L30.8307 28.4739L30.8713 28.2293C31.0084 27.4004 30.7251 26.9471 29.6713 25.2605C29.1331 24.3995 28.3768 23.2187 27.4845 21.8457C26.2076 19.8816 24.8697 17.8584 23.9381 16.4794C24.8205 15.1524 26.0992 13.184 26.7304 12.2028C27.6945 10.7038 28.4718 9.47024 29.0414 8.53614C30.1564 6.70595 30.4105 6.20296 30.3445 5.4637V5.45689V5.44989C30.1931 3.87981 28.4995 3.31968 27.6855 3.04993C26.9292 2.79948 25.9882 2.54675 25.3317 2.37896C24.0831 2.05946 21.8652 1.52374 21.0314 1.52374C20.9448 1.52374 20.8577 1.52714 20.773 1.53376L20.7058 1.53888L20.64 1.5472C19.2975 1.71272 18.706 2.56132 18.021 3.54403C17.646 4.08202 17.1385 4.84418 16.513 5.80988C16.1806 6.32271 15.8313 6.86732 15.4818 7.41779C15.1156 6.80886 14.7782 6.26236 14.5164 5.84165C13.9971 5.00932 13.4852 4.2135 13.0736 3.59947C12.427 2.63358 12.1319 2.19263 11.4676 1.84873L11.2188 1.7199L10.9437 1.64084C10.6441 1.55572 10.3305 1.51335 10.0151 1.51541L10.0123 1.51466Z" fill="black"/>
    <path d="M11.11 2.26943C11.1425 2.26834 11.175 2.27147 11.2065 2.2787C11.4165 2.38728 14.8548 7.70172 16.3223 10.6663H16.5731C18.376 7.77398 21.8145 2.31502 22.108 2.2787C22.1146 2.27839 22.1212 2.27839 22.1278 2.2787C22.7202 2.2787 28.7757 3.69461 28.8174 4.12308C28.8595 4.59334 22.2759 14.6076 21.9823 14.9691C23.5758 17.2467 29.4045 26.1405 29.3626 26.3936C29.243 26.6683 23.9418 28.2149 22.2239 28.2149C22.1432 28.2155 22.0625 28.211 21.9825 28.2013C21.7311 28.129 18.2926 22.706 16.5314 19.7414H16.2798C14.5605 22.706 11.1639 28.1291 10.9542 28.1291C10.8337 28.1454 10.7119 28.153 10.59 28.1516C8.74852 28.1516 3.82005 26.9155 3.74216 26.6467C3.65813 26.3936 9.3611 17.3914 11.0804 14.9691C10.8285 14.6439 4.37075 4.62928 4.41288 4.1592C4.41288 3.74436 10.1709 2.27 11.1093 2.27L11.11 2.26943ZM11.1093 0C10.0816 0 7.85686 0.55936 6.62228 0.89286C5.98864 1.06311 5.07592 1.3236 4.32599 1.58957C3.58002 1.8544 1.85068 2.46692 1.78222 4.06083C1.74098 4.75167 2.00887 5.27944 3.06091 7.0402C3.61535 7.96825 4.37733 9.2003 5.32297 10.7023C6.1273 11.9784 7.25899 13.7511 8.03656 14.9479C7.00711 16.4821 5.58362 18.6947 4.42187 20.537C3.55325 21.9144 2.81013 23.1167 2.27171 24.0141C1.25017 25.7191 0.899559 26.303 1.20124 27.2441C1.59112 28.4871 2.91128 28.8914 3.70376 29.1343C4.27597 29.3094 5.02677 29.5073 5.81772 29.6914C6.98934 29.9642 9.16714 30.4216 10.5893 30.4216C10.8176 30.4226 11.0457 30.41 11.2719 30.3837C12.5253 30.2589 13.1588 29.419 13.3782 29.1286C13.5166 28.9451 13.6893 28.6996 13.9065 28.378C14.2782 27.8283 14.7813 27.0517 15.3618 26.1326C15.7085 25.584 16.0683 25.0069 16.4248 24.4291C16.7927 25.0156 17.1624 25.6003 17.5166 26.1532C18.109 27.079 18.6226 27.8616 19.0013 28.4166C19.6999 29.4411 20.1202 30.0595 21.147 30.3546L21.3625 30.4166L21.5865 30.446C21.7972 30.4728 22.0098 30.4859 22.2228 30.4851C23.5361 30.4851 25.6435 29.9893 27.1802 29.5731C28.0012 29.3509 28.7906 29.114 29.4021 28.9063C30.2797 28.6082 31.3717 28.2374 31.8268 27.1906L31.9275 26.9591L31.9678 26.7145C32.105 25.8855 31.8217 25.4323 30.7679 23.7457C30.2302 22.8846 29.4734 21.7038 28.5811 20.3309C27.3046 18.3667 25.9662 16.3436 25.0351 14.9646C25.9173 13.6376 27.1962 11.6691 27.827 10.6879C28.7911 9.18914 29.5689 7.95539 30.138 7.02148C31.2534 5.1911 31.5075 4.6883 31.441 3.94885V3.94204V3.93504C31.2899 2.36496 29.5963 1.80483 28.7825 1.53527C28.0258 1.28462 27.0848 1.03209 26.4288 0.864111C25.1799 0.544609 22.9609 0.00889027 22.1284 0.00889027C22.0407 0.00889027 21.9545 0.0122912 21.87 0.018912L21.8028 0.0240268L21.737 0.0323513C20.3945 0.197872 19.8032 1.04666 19.118 2.02919C18.7433 2.56718 18.2358 3.32933 17.6098 4.29521C17.2778 4.80785 16.9297 5.35246 16.5786 5.90313C16.2127 5.29401 15.8752 4.74751 15.6132 4.327C15.0939 3.49467 14.582 2.69865 14.1704 2.08462C13.5239 1.11987 13.2285 0.677786 12.5644 0.333882L12.3156 0.205053L12.0405 0.126173C11.741 0.0409243 11.4273 -0.00150516 11.1119 0.000565744L11.1093 0Z" fill="black"/>
    <path d="M15.6189 19.7407C13.8997 22.7053 10.5033 28.1283 10.2938 28.1283C8.86766 28.3451 3.16513 26.9352 3.08131 26.646C2.9975 26.3929 8.70004 17.3906 10.4193 14.9684C10.1676 14.6432 3.71035 4.62852 3.75203 4.15844C3.75203 3.72487 10.0419 2.13436 10.5452 2.2785C10.7548 2.38709 14.1933 7.70153 15.6611 10.6662H15.9125C17.7158 7.7738 21.1538 2.31482 21.4474 2.2785C21.9082 2.24256 28.1147 3.68836 28.1568 4.12231C28.1987 4.59258 21.6153 14.6069 21.3217 14.9684C22.915 17.2459 28.7437 26.1398 28.7018 26.3929C28.5763 26.6821 22.7055 28.3814 21.3217 28.2006C21.0703 28.1283 17.6317 22.7053 15.8706 19.7407H15.6189Z" fill="#FC153F"/>
    <path d="M21.4307 28.2006C21.1793 28.1283 17.7408 22.7053 15.9807 19.7407H15.728C14.0087 22.7053 10.6124 28.1283 10.4028 28.1283C9.13401 28.3212 4.47694 27.2256 3.40888 26.7784V26.175C4.45829 24.2644 8.97779 17.1602 10.5057 15.0003H21.454C23.0789 17.3282 28.8534 26.1409 28.8119 26.3927C28.6926 26.6674 23.3926 28.2136 21.6734 28.2138C21.5922 28.2146 21.5111 28.2102 21.4307 28.2006Z" fill="#FB002D"/>
    <path d="M22.205 28.78C22.0967 28.7805 21.9886 28.7742 21.8814 28.7611L21.7717 28.7382C21.4735 28.6523 21.35 28.6167 19.2446 25.3288C18.2983 23.8512 17.2395 22.1497 16.4084 20.7744C15.6056 22.1308 14.5682 23.8257 13.6267 25.3167C11.5753 28.5651 11.4299 28.6899 11.0046 28.6947C10.0002 28.8165 7.87222 28.3931 6.67735 28.1255C3.26934 27.3622 3.18004 27.0546 3.10106 26.7824C3.0133 26.5215 2.97227 26.3942 6.15429 21.3482C7.78643 18.7598 9.43876 16.2233 10.3122 14.9621C9.77182 14.1468 8.36105 11.9585 7.05582 9.88735C3.77266 4.67809 3.73404 4.35443 3.75313 4.1261C3.76423 4.01182 3.80625 3.90138 3.87583 3.80364C3.94541 3.7059 4.0406 3.62359 4.15376 3.56332C4.96863 3.05674 10.5498 1.49139 11.4116 1.73882L11.4805 1.75773L11.5428 1.79009C11.6848 1.86367 11.8994 1.9749 13.8685 5.13019C14.3962 5.9752 15.59 7.91718 16.4884 9.59774C21.3654 1.79424 21.5731 1.76871 22.0119 1.71461L22.0457 1.7112C22.7316 1.65881 28.3277 2.98997 29.1623 3.59416C29.2484 3.65192 29.3201 3.72415 29.3729 3.80648C29.4257 3.88881 29.4585 3.97952 29.4695 4.07313C29.4914 4.30978 29.5134 4.55078 26.0977 9.85917C24.7492 11.9557 23.308 14.1451 22.7467 14.9676C23.6134 16.2263 25.3085 18.7799 26.8561 21.1602C30.0709 26.1055 30.0518 26.22 30.0103 26.4712L30.0002 26.5321L29.9752 26.5889C29.88 26.8083 29.7497 27.1087 26.3331 28.0127C25.2065 28.3142 23.2746 28.78 22.205 28.78ZM15.871 19.1732H16.9319L17.1153 19.4819C18.8637 22.4247 21.6131 26.7381 22.3108 27.6488C23.5741 27.6204 27.2432 26.6246 28.5214 26.1543C27.4883 24.3932 23.0159 17.5473 21.4169 15.2612L21.1957 14.9451L21.4415 14.6424C21.8121 14.1642 27.0712 6.1445 28.0302 4.33021C26.9292 3.90061 23.4817 3.05788 22.3772 2.87817C21.8612 3.53836 20.2797 5.91637 17.1513 10.9344L16.9648 11.2333H15.8851L15.7144 10.8886C14.3839 8.20074 11.6008 3.86656 10.8717 2.85566C9.78695 2.9981 6.27781 3.89816 5.18716 4.35367C6.10536 6.12824 11.2927 14.2032 11.628 14.6564L11.8494 14.9553L11.6396 15.2642C10.0818 17.4604 5.56211 24.5901 4.56624 26.3891C5.82255 26.8053 9.36812 27.602 10.6176 27.5852C11.3061 26.6814 14.0809 22.2594 15.6891 19.4864L15.871 19.1732Z" fill="url(#paint0_linear_3_114)"/>
    <path d="M1.06631 4.46489L2.19119 2.91278L3.14121 4.35725C3.14121 4.35725 2.56879 5.44894 2.51657 5.47882C2.46435 5.50871 1.06631 4.46489 1.06631 4.46489Z" fill="black"/>
    <path d="M31.6762 27.4789L30.3914 29.2516L28.74 28.2151L30.4006 26.3672L31.6762 27.4789Z" fill="black"/>
    <defs>
        <linearGradient id="paint0_linear_3_114" x1="16.5472" y1="1.7097" x2="16.5472" y2="28.78" gradientUnits="userSpaceOnUse">
            <stop stop-color="#C9F9FC"/>
            <stop offset="1" stop-color="#FC1515" stop-opacity="0"/>
        </linearGradient>
    </defs>
</svg>
