<svg version="1.0" xmlns="http://www.w3.org/2000/svg"
     width="499.000000pt" height="500.000000pt" viewBox="0 0 499.000000 500.000000"
     preserveAspectRatio="xMidYMid meet">

    <g transform="translate(0.000000,500.000000) scale(0.100000,-0.100000)"
       fill="#000000" stroke="none">
        <path d="M1590 4016 c0 -9 5 -16 10 -16 6 0 10 -4 10 -10 0 -19 -31 -10 -40
13 -9 21 -9 21 -9 -4 -1 -30 22 -41 58 -28 30 12 26 53 -6 57 -16 2 -23 -2
-23 -12z"/>
        <path d="M719 3908 c-9 -17 -4 -56 8 -65 34 -26 71 25 41 55 -10 10 -45 17
-49 10z m31 -38 c0 -5 -5 -10 -11 -10 -5 0 -7 5 -4 10 3 6 8 10 11 10 2 0 4
-4 4 -10z"/>
        <path d="M1720 3880 c0 -5 8 -10 18 -11 14 0 14 -2 -3 -9 -19 -7 -19 -8 -2
-15 22 -9 42 8 34 29 -7 17 -47 22 -47 6z"/>
        <path d="M2395 3740 c-3 -6 4 -10 17 -11 13 0 17 -3 11 -6 -7 -2 -13 -11 -13
-19 0 -8 -4 -14 -10 -14 -5 0 -10 5 -10 12 0 6 -3 8 -6 5 -4 -4 -1 -13 6 -22
30 -36 83 3 60 45 -11 21 -44 27 -55 10z"/>
        <path d="M3511 3689 c-11 -12 -25 -33 -31 -49 l-11 -27 -60 24 c-169 68 -393
12 -527 -132 -73 -77 -95 -123 -100 -206 -4 -59 -2 -68 23 -97 15 -18 37 -32
48 -32 14 -1 30 -13 42 -33 42 -68 164 -95 268 -60 32 11 60 17 63 12 2 -4 18
-3 34 3 38 13 70 5 108 -27 37 -31 50 -18 17 17 l-24 26 44 16 c23 9 63 31 89
47 53 36 89 34 127 -7 22 -23 24 -35 25 -117 1 -114 1 -114 20 -121 29 -11 53
13 70 72 9 31 26 67 37 80 38 41 90 23 108 -37 17 -56 -10 -108 -71 -138 -43
-21 -44 -22 -15 -23 17 0 43 7 59 15 29 15 41 13 41 -8 0 -16 81 -30 132 -22
86 13 163 118 163 222 0 65 -12 73 -69 44 -45 -23 -82 -17 -100 18 -6 11 -10
74 -9 148 2 110 -1 138 -21 198 -20 58 -33 79 -82 126 -67 65 -123 89 -211 89
-71 0 -121 -23 -168 -77 l-33 -37 7 29 c4 17 16 39 27 51 10 11 19 23 19 27 0
14 -20 7 -39 -14z m-662 -428 c7 -11 16 -21 21 -21 6 0 10 -11 10 -25 0 -32
-15 -32 -46 2 -33 35 -38 62 -23 114 l12 44 8 -46 c4 -26 12 -56 18 -68z m99
-98 c6 -12 36 -33 64 -47 56 -27 49 -33 -17 -15 -75 20 -103 67 -82 138 l11
36 6 -45 c3 -25 11 -55 18 -67z m352 -33 c0 -5 -5 -10 -11 -10 -5 0 -7 5 -4
10 3 6 8 10 11 10 2 0 4 -4 4 -10z"/>
        <path d="M1459 3674 c-93 -16 -255 -82 -329 -132 -81 -55 -200 -176 -260 -266
-270 -404 -226 -938 104 -1260 170 -165 392 -265 626 -282 70 -5 89 -11 110
-30 54 -50 144 -68 390 -79 89 -4 158 -13 203 -26 l68 -20 -20 -33 c-12 -18
-21 -41 -21 -50 0 -9 -4 -16 -10 -16 -13 0 -13 16 0 60 l9 35 -24 -28 c-44
-50 -28 -97 33 -97 39 0 59 9 129 63 51 38 153 174 153 203 0 18 -6 20 112
-25 257 -97 526 -154 576 -122 8 5 -25 12 -85 19 -126 15 -298 59 -438 112
-178 68 -170 68 -199 12 -12 -23 -22 -31 -34 -28 -9 3 -48 13 -87 22 -56 14
-78 25 -112 60 -51 49 -75 55 -196 48 l-92 -6 56 30 c165 86 279 211 383 420
69 137 91 244 91 437 -1 140 -4 174 -28 268 -40 159 -113 299 -215 410 -217
238 -575 359 -893 301z m203 -71 c-27 -54 -48 -123 -71 -240 -17 -81 -40 -249
-41 -295 -1 -32 -402 55 -425 92 -8 13 94 158 164 233 36 38 96 92 134 120 74
55 250 149 255 136 2 -4 -5 -25 -16 -46z m243 10 c194 -55 359 -166 480 -323
81 -106 160 -297 172 -418 l6 -63 -59 -56 c-32 -30 -77 -68 -100 -83 l-41 -29
-6 112 c-7 120 -42 278 -78 349 -19 37 -20 43 -5 52 69 47 97 69 93 73 -3 2
-22 -4 -44 -15 -76 -39 -78 -38 -114 24 -89 156 -289 330 -433 378 -64 22 -72
12 -12 -14 77 -33 220 -137 289 -210 105 -111 134 -161 129 -222 -4 -36 -267
-95 -469 -105 l-123 -6 0 34 c1 98 36 283 87 449 14 47 28 91 30 99 5 18 77 9
198 -26z m-412 -16 c-112 -57 -233 -171 -342 -320 -61 -84 -78 -89 -157 -47
-35 18 -64 39 -64 47 0 7 37 50 83 96 117 118 237 189 388 227 148 37 168 37
92 -3z m-501 -417 c43 -25 76 -49 73 -55 -2 -5 -15 -38 -30 -72 -37 -91 -65
-234 -65 -340 l0 -93 -28 0 c-32 0 -61 20 -151 101 l-62 57 11 68 c6 38 20 98
32 134 34 106 112 253 132 248 6 -2 46 -23 88 -48z m196 -84 c90 -31 201 -56
288 -64 l69 -7 6 -220 c3 -121 9 -249 14 -284 l8 -64 -119 6 c-213 12 -438 74
-451 125 -10 41 5 264 22 327 21 74 74 205 84 205 4 0 39 -11 79 -24z m1061
-12 c30 -38 57 -135 71 -249 15 -123 7 -179 -28 -215 -32 -32 -160 -83 -275
-110 -96 -23 -297 -50 -366 -50 -49 0 -49 0 -55 38 -3 20 -9 145 -12 278 l-7
241 124 6 c110 6 220 24 429 73 81 18 96 17 119 -12z m312 -549 c-6 -44 -21
-108 -33 -143 -19 -54 -34 -75 -103 -141 -75 -72 -170 -140 -180 -129 -3 2 9
37 26 77 30 71 79 278 79 336 0 53 12 76 49 94 20 11 65 46 101 79 l65 60 3
-77 c2 -42 -2 -112 -7 -156z m-1751 120 c30 -25 153 -105 161 -105 3 0 12 -33
19 -72 16 -93 57 -201 115 -302 47 -84 52 -96 34 -96 -22 0 -166 82 -239 136
-54 40 -80 67 -94 97 -34 74 -66 219 -73 327 l-6 105 29 -35 c16 -19 40 -44
54 -55z m1502 -161 c-5 -126 -78 -337 -135 -392 -17 -17 -55 -40 -84 -51 -61
-24 -218 -57 -320 -66 l-71 -7 -22 68 c-27 89 -70 301 -70 348 l0 36 73 0 c39
0 117 7 172 15 110 15 350 74 405 98 19 8 40 14 45 13 6 -2 9 -29 7 -62z
m-1164 -3 c116 -34 280 -61 369 -61 l60 0 18 -112 c9 -62 30 -164 46 -227 16
-63 27 -116 25 -119 -8 -8 -236 16 -328 34 l-86 17 -54 71 c-77 104 -161 289
-182 405 -5 29 -4 33 12 28 9 -4 63 -20 120 -36z m1281 -313 c-26 -50 -131
-176 -186 -223 -32 -28 -89 -71 -127 -95 -65 -42 -76 -45 -150 -50 -75 -5 -81
-7 -84 -27 -3 -21 -9 -23 -60 -23 l-57 0 -24 82 c-13 46 -26 88 -28 95 -4 9 7
13 33 13 50 0 205 25 269 44 28 8 70 17 94 21 l45 7 -39 -53 c-21 -30 -49 -69
-63 -86 -19 -26 -21 -33 -9 -33 21 0 101 93 134 157 24 46 39 60 116 105 48
29 100 65 115 81 29 30 41 22 21 -15z m-1424 -70 c51 -30 194 -98 208 -98 2 0
35 -30 73 -67 66 -64 174 -136 174 -115 0 6 -16 23 -35 39 -19 15 -59 50 -88
76 -50 47 -51 48 -22 43 112 -21 231 -36 293 -36 49 0 74 -4 77 -12 2 -7 17
-51 34 -97 l30 -83 -122 4 c-101 4 -137 10 -213 36 -232 78 -428 217 -530 377
l-19 30 40 -30 c22 -17 67 -47 100 -67z m1329 -361 c31 -37 94 -65 179 -81 20
-4 37 -10 37 -14 0 -4 -21 -29 -46 -56 l-45 -48 -22 20 c-43 40 -161 70 -307
77 -213 10 -296 23 -354 52 l-51 27 83 13 c72 11 87 11 112 -2 45 -23 150 -19
150 7 0 6 -19 7 -49 3 -38 -5 -56 -2 -82 12 l-34 18 125 6 c69 3 158 5 199 5
72 -1 74 -2 105 -39z"/>
        <path d="M859 2935 c-67 -69 -92 -108 -43 -65 59 50 124 114 124 122 0 19 -22
4 -81 -57z"/>
        <path d="M1967 2827 c-19 -23 -49 -57 -66 -75 -27 -29 -73 -91 -95 -129 -16
-28 15 -11 32 17 10 16 46 59 80 95 33 36 70 78 81 94 34 47 7 45 -32 -2z"/>
        <path d="M2018 2718 c-37 -45 -66 -84 -63 -87 6 -6 116 114 133 145 25 47 -4
23 -70 -58z"/>
        <path d="M532 3192 c-17 -12 -4 -44 17 -40 17 4 22 39 6 45 -5 1 -16 -1 -23
-5z"/>
        <path d="M2773 2981 c-36 -23 -46 -56 -46 -147 1 -84 19 -154 64 -249 27 -57
49 -87 74 -105 37 -25 55 -56 55 -91 0 -17 -7 -19 -60 -19 -59 0 -60 -1 -60
-27 0 -43 10 -50 90 -72 41 -12 83 -30 94 -41 25 -24 15 -26 -66 -9 -74 14
-106 28 -123 53 l-15 20 0 -22 c0 -29 28 -45 133 -77 48 -15 87 -31 87 -35 0
-18 -62 -21 -120 -6 -91 24 -94 23 -87 -24 7 -51 18 -65 84 -102 62 -35 89
-66 102 -117 5 -20 14 -52 20 -71 10 -32 10 -29 7 25 -2 33 -7 68 -12 79 -6
16 -4 17 17 12 l24 -7 -25 20 c-14 11 -43 30 -65 41 -58 30 -135 98 -135 120
0 16 5 17 33 10 17 -5 59 -14 92 -20 54 -11 57 -13 40 -26 -10 -8 -41 -14 -69
-14 -69 0 -51 -11 36 -20 94 -11 98 -6 98 113 0 63 3 86 11 81 7 -4 10 -3 7 2
-31 65 -39 92 -36 130 2 24 8 43 13 42 6 -2 19 -32 31 -68 11 -36 33 -90 48
-120 24 -47 27 -63 22 -107 -3 -29 -9 -78 -12 -108 -5 -38 -3 -55 5 -55 6 0
11 11 11 25 0 13 7 57 16 97 l16 73 -45 111 c-24 61 -48 125 -52 143 -8 37
-29 49 -55 33 -24 -15 -35 11 -14 32 42 43 68 168 53 253 -36 194 -174 312
-286 244z m58 -41 c20 0 92 -77 116 -124 47 -92 43 -225 -8 -290 -25 -32 -30
-32 -69 0 -59 50 -109 188 -111 307 -1 74 20 123 48 113 8 -3 19 -6 24 -6z
m127 -537 c6 -26 9 -50 6 -52 -10 -10 -26 19 -31 58 -8 58 13 53 25 -6z m-14
-77 c43 -23 58 -46 31 -46 -36 0 -165 44 -165 56 0 29 73 24 134 -10z"/>
        <path d="M2865 2765 c21 -38 42 -74 48 -80 6 -5 -7 22 -28 60 -21 39 -42 75
-48 80 -6 6 7 -21 28 -60z"/>
        <path d="M2840 2663 c0 -7 10 -22 23 -35 12 -13 17 -17 11 -8 -6 8 -16 24 -22
35 -6 11 -12 15 -12 8z"/>
        <path d="M3210 2948 c-6 -24 -15 -52 -20 -63 l-9 -20 -1 20 c-1 11 -1 35 0 53
1 17 -3 32 -8 32 -27 0 -30 -95 -4 -111 16 -10 17 -19 9 -79 -17 -123 34 -167
110 -96 44 41 41 47 -7 11 -19 -14 -44 -25 -57 -25 -21 0 -23 4 -23 60 0 64
17 159 31 175 6 5 9 3 9 -8 0 -27 36 -40 68 -25 35 17 72 82 55 99 -9 9 -16 3
-28 -28 -9 -23 -27 -45 -41 -52 -29 -13 -32 -8 -36 54 -2 28 -8 41 -20 43 -13
2 -20 -8 -28 -40z"/>
        <path d="M302 2900 c-1 -28 2 -31 26 -28 21 2 27 8 27 28 0 19 -6 26 -26 28
-23 3 -26 -1 -27 -28z"/>
        <path d="M3827 2708 c-20 -66 -81 -147 -138 -185 -31 -20 -57 -28 -104 -31
-96 -6 -157 18 -227 90 -32 32 -60 58 -63 58 -19 0 3 -37 49 -83 62 -60 128
-87 218 -87 64 0 139 23 164 51 9 10 27 19 38 19 58 0 88 56 84 156 l-3 69
-18 -57z"/>
        <path d="M3942 2615 c-85 -102 -194 -191 -259 -212 -29 -9 -53 -19 -53 -22 1
-3 24 -37 52 -76 56 -75 76 -74 34 1 -14 26 -26 48 -26 49 0 2 24 17 53 33 78
44 277 252 277 289 0 24 -15 12 -78 -62z"/>
        <path d="M4057 2663 c4 -10 33 -47 66 -83 176 -192 328 -458 428 -747 43 -125
90 -364 114 -577 8 -71 17 -131 21 -135 12 -11 -5 222 -26 349 -38 230 -97
426 -190 630 -96 211 -189 353 -329 501 -74 79 -96 95 -84 62z"/>
        <path d="M3405 2648 c-11 -6 -21 -12 -23 -14 -2 -1 1 -12 8 -23 6 -13 21 -21
36 -21 22 0 25 4 22 32 -3 36 -14 42 -43 26z"/>
        <path d="M4023 2475 c-8 -21 1 -28 26 -20 12 4 18 12 14 21 -7 19 -32 18 -40
-1z"/>
        <path d="M3871 2283 c-48 -24 -92 -73 -149 -168 -27 -44 -64 -105 -83 -135
-41 -67 -142 -187 -182 -217 -54 -40 -107 -94 -102 -103 3 -5 22 -12 43 -15
20 -3 47 -8 60 -11 33 -7 27 12 -8 25 -16 5 -30 13 -30 17 0 4 40 46 88 93 84
82 173 204 228 311 37 71 112 160 149 176 51 21 115 18 163 -8 52 -29 125
-123 148 -191 l18 -52 7 35 c21 94 -62 208 -180 248 -49 17 -130 14 -170 -5z"/>
        <path d="M513 2203 c-14 -5 -7 -54 10 -65 30 -19 52 33 25 60 -13 13 -16 13
-35 5z m27 -39 c0 -8 -5 -12 -10 -9 -6 4 -8 11 -5 16 9 14 15 11 15 -7z"/>
        <path d="M4001 2118 c2 -45 13 -68 28 -59 12 8 12 14 1 40 -16 40 -30 49 -29
19z"/>
        <path d="M3478 2013 c-89 -100 -161 -165 -228 -203 -8 -5 -12 -11 -8 -15 10
-10 78 29 141 80 51 43 227 235 227 249 0 26 -44 -12 -132 -111z"/>
        <path d="M3415 1869 c-10 -15 1 -23 20 -15 9 3 13 10 10 16 -8 13 -22 13 -30
-1z"/>
        <path d="M4100 1743 c-53 -68 -260 -280 -323 -331 -124 -101 -157 -123 -234
-153 -197 -79 -421 -77 -808 8 -132 28 -237 66 -333 120 -66 37 -88 38 -56 2
57 -63 302 -148 554 -191 100 -18 167 -22 335 -23 242 0 272 7 399 92 165 110
426 356 479 453 30 54 22 68 -13 23z"/>
        <path d="M3910 1674 c-13 -32 -13 -51 0 -59 11 -7 52 69 43 79 -14 14 -34 5
-43 -20z"/>
        <path d="M3330 1616 c0 -10 9 -16 24 -16 13 0 39 -2 57 -6 34 -5 34 -5 9 9
-14 8 -40 18 -57 22 -26 5 -33 3 -33 -9z"/>
        <path d="M4483 1523 c-18 -6 -16 -43 1 -43 22 0 39 26 24 37 -7 6 -19 8 -25 6z"/>
        <path d="M1537 1485 c-46 -16 -51 -20 -42 -35 13 -22 125 14 125 40 0 14 -38
12 -83 -5z"/>
        <path d="M3066 1482 c-7 -12 44 -82 61 -82 16 0 16 20 0 40 -24 30 -55 51 -61
42z"/>
        <path d="M1694 1467 c-10 -26 0 -120 14 -125 9 -3 12 14 12 62 0 61 -14 95
-26 63z"/>
        <path d="M4155 1444 c-22 -29 -25 -38 -14 -45 8 -5 17 -9 20 -9 21 0 48 73 31
84 -5 3 -22 -10 -37 -30z"/>
        <path d="M4347 1216 c-3 -8 2 -21 12 -30 17 -15 19 -15 32 0 11 14 11 18 -6
30 -24 18 -31 18 -38 0z"/>
        <path d="M3705 1193 c9 -24 25 -145 19 -154 -2 -4 0 -18 5 -31 7 -17 10 3 10
74 1 106 -4 128 -26 128 -10 0 -13 -5 -8 -17z"/>
    </g>
</svg>
