<?xml version="1.0" standalone="no"?>
<!DOCTYPE svg PUBLIC "-//W3C//DTD SVG 20010904//EN"
 "http://www.w3.org/TR/2001/REC-SVG-20010904/DTD/svg10.dtd">
<svg version="1.0" xmlns="http://www.w3.org/2000/svg"
 width="200.000000pt" height="200.000000pt" viewBox="0 0 200.000000 200.000000"
 preserveAspectRatio="xMidYMid meet">

<g transform="translate(0.000000,200.000000) scale(0.100000,-0.100000)"
fill="#000000" stroke="none">
<path d="M777 1758 c-18 -19 -40 -57 -50 -84 -31 -89 -17 -126 32 -80 32 31
41 32 41 7 0 -24 14 -34 39 -26 15 5 17 13 13 58 -2 28 -6 54 -8 56 -3 3 -18
-5 -34 -17 -16 -12 -32 -22 -35 -22 -11 0 -4 37 15 79 23 49 38 49 21 0 -14
-41 -5 -51 20 -20 25 30 24 58 -2 71 -17 10 -25 7 -52 -22z"/>
<path d="M1306 1763 c-53 -49 -83 -152 -54 -181 19 -19 53 -14 76 11 30 32 29
57 -1 29 -13 -12 -27 -19 -30 -15 -16 15 1 112 24 137 19 21 19 -4 0 -53 -11
-31 -15 -51 -8 -48 20 6 47 52 53 89 5 29 3 38 -13 46 -16 9 -25 6 -47 -15z"/>
<path d="M170 1767 c-15 -8 -27 -24 -31 -46 -9 -43 5 -199 19 -213 18 -18 50
2 83 54 l33 51 11 -49 c20 -97 100 -91 151 12 26 52 41 141 30 170 -6 16 -8
16 -25 0 -13 -12 -20 -37 -24 -87 -7 -81 -30 -128 -53 -108 -19 16 -18 101 2
168 8 29 13 56 9 59 -3 3 -18 1 -33 -4 -20 -7 -39 -32 -76 -101 -27 -51 -52
-90 -57 -87 -8 5 -4 123 7 172 5 25 -8 28 -46 9z"/>
<path d="M535 1759 c-4 -11 -4 -23 -1 -26 8 -9 36 17 36 33 0 22 -28 16 -35
-7z"/>
<path d="M923 1753 c-10 -16 -22 -31 -28 -35 -5 -4 -11 -36 -12 -71 -2 -51 0
-66 13 -71 23 -9 59 13 45 27 -19 19 -13 67 12 89 15 13 18 21 10 24 -8 4 -10
16 -6 35 7 37 -11 38 -34 2z"/>
<path d="M1453 1715 c-65 -28 -83 -105 -32 -134 52 -29 119 12 119 74 0 38
-17 52 -47 41 -12 -5 -14 -9 -5 -18 31 -31 0 -105 -33 -78 -26 21 -18 69 16
101 34 32 30 35 -18 14z"/>
<path d="M1762 1713 c-58 -28 -80 -99 -40 -127 31 -22 68 -20 101 7 49 39 35
124 -17 104 -15 -6 -15 -9 -2 -30 28 -42 -12 -101 -41 -61 -24 33 -6 86 38
110 35 19 1 17 -39 -3z"/>
<path d="M526 1698 c-28 -46 -32 -128 -5 -128 26 0 53 130 29 145 -5 3 -16 -5
-24 -17z"/>
<path d="M628 1693 c-36 -38 -51 -79 -38 -104 14 -25 55 -24 81 2 23 23 18 39
-5 20 -23 -19 -38 -3 -31 32 8 37 25 60 25 34 0 -11 5 -14 16 -10 19 7 15 47
-6 51 -9 1 -28 -10 -42 -25z"/>
<path d="M1042 1705 c-26 -19 -52 -65 -52 -93 0 -47 55 -52 101 -11 25 22 26
22 -31 2 -8 -3 0 9 18 27 57 55 26 118 -36 75z m32 -32 c-4 -16 -13 -35 -20
-43 -12 -12 -14 -12 -14 2 0 26 18 68 30 68 6 0 8 -11 4 -27z"/>
<path d="M1148 1692 c-6 -15 -13 -48 -16 -74 -4 -39 -2 -48 11 -48 21 0 37 30
37 69 0 32 20 45 21 14 0 -13 3 -11 10 6 14 37 7 53 -24 57 -22 2 -30 -3 -39
-24z"/>
<path d="M1569 1698 c-4 -66 9 -128 26 -128 19 0 95 96 95 120 0 38 -21 30
-42 -17 -20 -42 -23 -45 -26 -23 -7 57 -13 70 -32 70 -14 0 -20 -7 -21 -22z"/>
<path d="M1080 1520 c-540 -5 -589 -6 -635 -24 -59 -22 -118 -61 -161 -108
-49 -51 -130 -185 -148 -245 -6 -18 -3 -21 21 -19 19 2 50 25 98 73 80 79 138
111 227 124 67 9 162 12 169 4 7 -6 -9 -183 -27 -305 -37 -255 -90 -385 -215
-530 -87 -101 -99 -123 -99 -173 0 -89 122 -137 219 -87 128 65 187 265 240
815 12 116 22 226 23 245 l3 35 234 3 234 2 -6 -38 c-18 -109 -48 -365 -58
-490 -12 -157 -2 -303 27 -388 46 -135 161 -212 304 -201 165 13 282 125 325
312 17 71 14 85 -14 85 -13 0 -28 -18 -46 -55 -20 -41 -38 -62 -70 -80 -84
-50 -193 -42 -261 17 -76 67 -90 140 -74 393 6 99 21 239 33 310 l22 130 213
3 212 2 0 100 0 100 -102 -2 c-57 -2 -366 -5 -688 -8z m420 -19 c0 -12 -20
-25 -27 -18 -7 7 6 27 18 27 5 0 9 -4 9 -9z m112 -49 c-5 -59 -12 -75 -27 -62
-9 8 -15 8 -20 1 -6 -11 -74 -9 -93 3 -6 3 -13 2 -16 -3 -8 -13 -66 -8 -75 7
-6 10 -10 10 -21 -2 -7 -9 -16 -13 -21 -10 -5 3 -9 0 -9 -5 0 -6 -7 -11 -15
-11 -8 0 -15 7 -15 15 0 18 -12 19 -28 3 -10 -10 -14 -10 -21 0 -4 7 -15 10
-24 6 -22 -8 -23 25 -1 52 11 14 17 16 21 6 4 -10 8 -10 20 -1 11 10 16 10 22
1 4 -7 15 -10 24 -6 13 5 17 0 18 -22 l1 -29 9 33 c9 30 29 45 29 21 0 -6 9
-8 20 -4 16 5 20 2 20 -16 0 -21 1 -21 21 5 12 15 30 26 45 26 20 0 24 -5 24
-30 0 -35 10 -38 28 -10 10 17 10 20 -4 20 -8 0 -12 5 -9 10 6 10 55 14 55 4
0 -3 -5 -14 -10 -25 -8 -15 -7 -19 4 -19 14 0 25 28 34 84 5 26 16 -10 14 -42z
m-498 -36 c-2 -55 -53 -91 -68 -48 -3 9 -8 22 -11 28 -9 18 35 65 59 62 18 -3
21 -9 20 -42z m47 22 l0 -23 11 23 c6 12 17 22 25 22 11 0 10 -6 -3 -32 -22
-44 -44 -68 -62 -68 -11 0 -12 3 -4 13 7 8 9 29 5 50 -4 30 -3 37 11 37 10 0
16 -9 17 -22z m499 5 c0 -13 3 -14 12 -5 18 18 28 14 28 -10 1 -22 2 -21 16 5
15 27 34 36 34 16 0 -8 5 -7 16 2 12 10 17 10 23 1 4 -7 15 -10 24 -6 14 5 17
-1 17 -35 0 -30 -4 -41 -15 -41 -8 0 -15 7 -15 15 0 17 -16 20 -25 5 -10 -16
-25 -12 -25 7 0 14 -2 14 -20 -2 -15 -13 -20 -14 -20 -5 0 11 -3 11 -12 2 -8
-8 -15 -9 -25 -1 -9 9 -17 8 -28 -1 -20 -17 -29 7 -16 43 12 30 31 36 31 10z"/>
<path d="M1457 1444 c-4 -4 -7 -14 -7 -23 0 -11 3 -12 11 -4 6 6 10 16 7 23
-2 6 -7 8 -11 4z"/>
<path d="M1070 1424 c0 -8 5 -12 10 -9 6 3 10 10 10 16 0 5 -4 9 -10 9 -5 0
-10 -7 -10 -16z"/>
</g>
</svg>
